<svg class="diagram-root" style="background: #f5f6f6" xmlns="http://www.w3.org/2000/svg" xmlns:xlink="http://www.w3.org/1999/xlink"><style>.diagram-root { font-family: "Helvetica Neue", sans-serif; font-size: 12px; } .t { overflow: visible; } .t-bg { y: 40; fill: #fff;   } .th { fill: #005aa0;   } .tht { fill: #fff; font-size: 14px;  } .tf { fill: #323c46; overflow: visible; } .tf.pk { fill: #005aa0; font-weight: bold; } .tf.fk { font-weight: bold; } .ty { fill: #adb1b5; font-weight: normal; text-anchor: end; } .r { fill: transparent; stroke: #c3c3c3; stroke-width: 1; } .l { stroke: 1; } .i { fill: #c2c7ce; stroke: #c2c7ce; } .i.ix { fill: #afb3b6; stroke: #000; } .fa { fill: transparent; overflow: visible; } .fa .bg.hover { fill: #f7f7f7; } .c { cy: 12; r: 4; stroke: #d2d2dc; fill: #d2d2dc; } .hr { fill: transparent; stroke: #323c46; stroke-opacity: 0.035; stroke-width: 13; } .dc { stroke: #fa5a3c; fill: #fa5a3c; } .x { stroke: white; stroke-width: 1; } .hl .th { fill: #1b9bff; } .hl .tht {  } .fhl .bg { fill: #e7f4ff; } .fhls .bg {  } .r.hl { stroke: #1b9bff; } .dim { opacity: 0.25; }</style><g class="drawing-wrapper" transform="translate(-116, 18) scale(1,1)"><g class="rs"><path d="M 436 188 m -1, 0 a 1,1 0 1,0 2,0 a 1,1 0 1,0 -2,0 M 436 188 m -0.5, 0 a 0.5,0.5 0 1,0 1,0 a 0.5,0.5 0 1,0 -1,0  M436 188 L436 188 424 188 M 436 194 m -1, 0 a 1,1 0 1,0 2,0 a 1,1 0 1,0 -2,0 M 436 194 m -0.5, 0 a 0.5,0.5 0 1,0 1,0 a 0.5,0.5 0 1,0 -1,0  M436 194 L436 194 429 188 436 182 M 436 182 m -1, 0 a 1,1 0 1,0 2,0 a 1,1 0 1,0 -2,0 M 436 182 m -0.5, 0 a 0.5,0.5 0 1,0 1,0 a 0.5,0.5 0 1,0 -1,0  M424 188 C -19.600000000000023 188, 128 69, 178 69 M 190 69 m -1, 0 a 1,1 0 1,0 2,0 a 1,1 0 1,0 -2,0 M 190 69 m -0.5, 0 a 0.5,0.5 0 1,0 1,0 a 0.5,0.5 0 1,0 -1,0  M190 69 L190 69 178 69 M184 75 L184 75 184 63" id="h184283748" class="r"></path><path d="M 436 463 m -1, 0 a 1,1 0 1,0 2,0 a 1,1 0 1,0 -2,0 M 436 463 m -0.5, 0 a 0.5,0.5 0 1,0 1,0 a 0.5,0.5 0 1,0 -1,0  M436 463 L436 463 424 463 M 436 469 m -1, 0 a 1,1 0 1,0 2,0 a 1,1 0 1,0 -2,0 M 436 469 m -0.5, 0 a 0.5,0.5 0 1,0 1,0 a 0.5,0.5 0 1,0 -1,0  M436 469 L436 469 429 463 436 457 M 436 457 m -1, 0 a 1,1 0 1,0 2,0 a 1,1 0 1,0 -2,0 M 436 457 m -0.5, 0 a 0.5,0.5 0 1,0 1,0 a 0.5,0.5 0 1,0 -1,0  M424 463 C 1.1999999999999886 463, 141 282, 191 282 M 203 282 m -1, 0 a 1,1 0 1,0 2,0 a 1,1 0 1,0 -2,0 M 203 282 m -0.5, 0 a 0.5,0.5 0 1,0 1,0 a 0.5,0.5 0 1,0 -1,0  M203 282 L203 282 191 282 M197 288 L197 288 197 276" id="h2405255031" class="r"></path><path d="M 436 488 m -1, 0 a 1,1 0 1,0 2,0 a 1,1 0 1,0 -2,0 M 436 488 m -0.5, 0 a 0.5,0.5 0 1,0 1,0 a 0.5,0.5 0 1,0 -1,0  M436 488 L436 488 424 488 M 436 494 m -1, 0 a 1,1 0 1,0 2,0 a 1,1 0 1,0 -2,0 M 436 494 m -0.5, 0 a 0.5,0.5 0 1,0 1,0 a 0.5,0.5 0 1,0 -1,0  M436 494 L436 494 429 488 436 482 M 436 482 m -1, 0 a 1,1 0 1,0 2,0 a 1,1 0 1,0 -2,0 M 436 482 m -0.5, 0 a 0.5,0.5 0 1,0 1,0 a 0.5,0.5 0 1,0 -1,0  M424 488 Q 402.35 488, 380.7 518 T 337.4 548 M 325.4 548 m -1, 0 a 1,1 0 1,0 2,0 a 1,1 0 1,0 -2,0 M 325.4 548 m -0.5, 0 a 0.5,0.5 0 1,0 1,0 a 0.5,0.5 0 1,0 -1,0  M325.4 548 L325.4 548 337.4 548 M331.4 554 L331.4 554 331.4 542" id="h734363672" class="r"></path></g><g class="hrs"></g><g class="ts"><svg width="168.05" height="100" x="203" y="225" id="h1903237708" class="t"><rect height="40" width="168.05" class="th"></rect><text x="13" y="25" class="tht">Category</text><rect height="60" width="168.05" class="t-bg"></rect><text x="13" y="61" class="tf pk">category_id<tspan x="155.05" class="ty">varchar</tspan></text><path d="M7,14A2,2 0 0,1 5,12A2,2 0 0,1 7,10A2,2 0 0,1 9,12A2,2 0 0,1 7,14M12.65,10C11.83,7.67 9.61,6 7, 6A6, 6 0 0, 0 1, 12A6, 6 0 0, 0 7, 18C9.61, 18 11.83, 16.33 12.65, 14H17V18H21V14H23V10H12.65Z" class="i pk" transform="translate(95.03632812500001, 48) scale(0.65)"></path><text x="13" y="86" class="tf">category<tspan x="155.05" class="ty">varchar</tspan></text></svg><svg width="187.4" height="100" x="138" y="491" id="h2584823334" class="t"><rect height="40" width="187.4" class="th"></rect><text x="13" y="25" class="tht">Subcategory</text><rect height="60" width="187.4" class="t-bg"></rect><text x="13" y="61" class="tf pk">subcategory_id<tspan x="174.4" class="ty">varchar</tspan></text><path d="M7,14A2,2 0 0,1 5,12A2,2 0 0,1 7,10A2,2 0 0,1 9,12A2,2 0 0,1 7,14M12.65,10C11.83,7.67 9.61,6 7, 6A6, 6 0 0, 0 1, 12A6, 6 0 0, 0 7, 18C9.61, 18 11.83, 16.33 12.65, 14H17V18H21V14H23V10H12.65Z" class="i pk" transform="translate(114.386328125, 48) scale(0.65)"></path><text x="13" y="86" class="tf">subcategory<tspan x="174.4" class="ty">varchar</tspan></text></svg><svg width="165.39" height="150" x="190" y="12" id="h1934035236" class="t"><rect height="40" width="165.39" class="th"></rect><text x="13" y="25" class="tht">Contacts</text><rect height="110" width="165.39" class="t-bg"></rect><text x="13" y="61" class="tf pk">contact_id<tspan x="152.39" class="ty">bigserial</tspan></text><path d="M7,14A2,2 0 0,1 5,12A2,2 0 0,1 7,10A2,2 0 0,1 9,12A2,2 0 0,1 7,14M12.65,10C11.83,7.67 9.61,6 7, 6A6, 6 0 0, 0 1, 12A6, 6 0 0, 0 7, 18C9.61, 18 11.83, 16.33 12.65, 14H17V18H21V14H23V10H12.65Z" class="i pk" transform="translate(87.70054687499999, 48) scale(0.65)"></path><text x="13" y="86" class="tf">first_name<tspan x="152.39" class="ty">varchar</tspan></text><text x="13" y="111" class="tf">last_name<tspan x="152.39" class="ty">varchar</tspan></text><text x="13" y="136" class="tf">email<tspan x="152.39" class="ty">varchar</tspan></text></svg><svg width="171.4" height="400" x="436" y="106" id="h3542347218" class="t"><rect height="40" width="171.4" class="th"></rect><text x="13" y="25" class="tht">Campaign</text><rect height="360" width="171.4" class="t-bg"></rect><text x="13" y="61" class="tf pk">cf_id<tspan x="158.4" class="ty">bigserial</tspan></text><path d="M7,14A2,2 0 0,1 5,12A2,2 0 0,1 7,10A2,2 0 0,1 9,12A2,2 0 0,1 7,14M12.65,10C11.83,7.67 9.61,6 7, 6A6, 6 0 0, 0 1, 12A6, 6 0 0, 0 7, 18C9.61, 18 11.83, 16.33 12.65, 14H17V18H21V14H23V10H12.65Z" class="i pk" transform="translate(93.710546875, 48) scale(0.65)"></path><text x="13" y="86" class="tf fk">contact_id<tspan x="158.4" class="ty">bigserial</tspan></text><text x="13" y="111" class="tf">company_name<tspan x="158.4" class="ty">varchar</tspan></text><text x="13" y="136" class="tf">description<tspan x="158.4" class="ty">varchar</tspan></text><text x="13" y="161" class="tf">goal<tspan x="158.4" class="ty">double</tspan></text><text x="13" y="186" class="tf">pledged<tspan x="158.4" class="ty">double</tspan></text><text x="13" y="211" class="tf">outcome<tspan x="158.4" class="ty">varchar</tspan></text><text x="13" y="236" class="tf">backers_count<tspan x="158.4" class="ty">long</tspan></text><text x="13" y="261" class="tf">country<tspan x="158.4" class="ty">varchar</tspan></text><text x="13" y="286" class="tf">currency<tspan x="158.4" class="ty">varchar</tspan></text><text x="13" y="311" class="tf">launched_date<tspan x="158.4" class="ty">datetime</tspan></text><text x="13" y="336" class="tf">end_date<tspan x="158.4" class="ty">datetime</tspan></text><text x="13" y="361" class="tf fk">category_id<tspan x="158.4" class="ty">varchar</tspan></text><text x="13" y="386" class="tf fk">subcategory_id<tspan x="158.4" class="ty">varchar</tspan></text></svg></g></g><text class="qdbd-link" x="10" y="20">www.quickdatabasediagrams.com</text></svg>